<svg xmlns="http://www.w3.org/2000/svg" width="382.243" height="287.613" viewBox="0 0 382.243 287.613"><g transform="translate(-1174.242 -3.272)"><path d="M1370.767,238.9l-17.1-15.9c-26.485-25.247-30.965-28.507-48.889-41.147,15.065-13.844,30.547-27.287,45.627-41.147,13.025-11.8,26.067-23.625,39.508-35.028,8.561-6.939,17.124-13.041,26.084-19.562H1312.1l-74.134,67.23h-15.9V2.2h-75.374V289.813h75.374V207.518h20.783l82.295,82.294h104.3c-19.964-16.7-39.527-33.406-58.671-50.912" transform="translate(27.553 1.072)" fill="#1a4bf8"/><path d="M1201.029,58.01H1490.7V2.2h-289.67Zm213.9,231.8h75.37V86.116h-75.37Z" transform="translate(65.787 1.072)" fill="#1a4bf8"/></g></svg>