<svg xmlns="http://www.w3.org/2000/svg" xmlns:xlink="http://www.w3.org/1999/xlink" width="155.607" height="25.852" viewBox="0 0 155.607 25.852">
  <defs>
    <clipPath id="clip-path">
      <rect id="Rectangle_39" data-name="Rectangle 39" width="155.607" height="25.852" fill="#fff"/>
    </clipPath>
  </defs>
  <g id="Groupe_17" data-name="Groupe 17" clip-path="url(#clip-path)">
    <path id="Tracé_60" data-name="Tracé 60" d="M23.011,8.884A5.18,5.18,0,0,0,20.113,8l-11.7-.414a2.334,2.334,0,0,1-1.932-.745,1.312,1.312,0,0,1-.331-.855A1.584,1.584,0,0,1,6.484,5.1a2.244,2.244,0,0,1,1.9-.662c1.131-.027,2.235-.083,3.366-.083,1.435,0,2.9.055,4.332.138,1.573.165,1.848.359,2.207,1.849l5.9.027c.054-1.711.054-3.449-1.3-4.69A5.4,5.4,0,0,0,20.086.414L19.01.249C16.664.138,14.319,0,11.974,0,9.85,0,7.726.083,5.6.165c-1.627.194-3.117.387-4.248,1.6a4.18,4.18,0,0,0-.8,1.241,11.732,11.732,0,0,0-.5,3.5,5.515,5.515,0,0,0,1.158,3.835,4.578,4.578,0,0,0,2.677,1.3c.275.055.579.083.855.138.91.055,1.821.138,2.731.192,2.842.166,5.711.194,8.58.249,1.38.192,1.987.165,2.456.828a1.487,1.487,0,0,1,.276.855,1.7,1.7,0,0,1-1.131,1.49A4.355,4.355,0,0,1,16,15.561c-1.352.027-2.677.083-4,.055-1.241-.028-2.455-.083-3.7-.138-1.269-.11-1.848-.359-2.069-.993A2.9,2.9,0,0,1,6.1,13.354L0,13.326c0,1.463-.027,3.643,1.076,4.829A6.025,6.025,0,0,0,4.8,19.644c2.621.138,5.214.3,7.808.3,2.4,0,4.773-.11,7.173-.248a7.558,7.558,0,0,0,3.311-1.048,3.8,3.8,0,0,0,.8-.828,6.471,6.471,0,0,0,.993-4.111c0-2.841-.883-4.11-1.876-4.828" transform="translate(0)" fill="#fff"/>
    <path id="Tracé_61" data-name="Tracé 61" d="M274.776,52.682a3.782,3.782,0,0,0-.8-1.049,6.077,6.077,0,0,0-3.118-1.38,19.97,19.97,0,0,0-3.586-.3,20.326,20.326,0,0,0-2.842.166,3.6,3.6,0,0,0-2.621,1.241,11.289,11.289,0,0,0-.8,1.159V50.226h-5.16v19.92h5.27V62.008a7.569,7.569,0,0,0,1.241,1.241A8.725,8.725,0,0,0,267,64.27c.5,0,.966-.028,1.462-.028,1.876-.054,3.891-.192,5.436-1.517a3.881,3.881,0,0,0,.745-.883,5.358,5.358,0,0,0,.634-2.345c.083-.882.083-1.738.083-2.566a10.267,10.267,0,0,0-.58-4.248m-5.435,7.146a6.718,6.718,0,0,1-3.532.662,15.129,15.129,0,0,1-3.09-.249,1.662,1.662,0,0,1-.91-.442,3.982,3.982,0,0,1-.772-3.035c.083-1.462.469-2.152.938-2.483a3.753,3.753,0,0,1,1.849-.442,13.376,13.376,0,0,1,1.49-.055c.413-.027.828-.027,1.241-.027,1.738,0,2.842.442,3.255,1.131a3.452,3.452,0,0,1,.332,1.738c0,.359.027.718.027,1.049a2.433,2.433,0,0,1-.828,2.152" transform="translate(-226.881 -44.294)" fill="#fff"/>
    <path id="Tracé_62" data-name="Tracé 62" d="M485.895,55.738a5.5,5.5,0,0,0-1.1-3.477c-.938-1.131-2.4-1.406-3.945-1.655-.393-.02-1.4-.042-2.7-.061-.989-.015-2.15-.029-3.348-.042l-2.231-.023H472.5l-.2.521h5.2v2.59h-5.2l.241.626,1.174.008c.725,0,1.4.01,1.977.017.938.009,1.6.022,1.736.034,1.241.055,2.179-.11,2.952,1.021a2.759,2.759,0,0,1,.469,1.627c0,.3-.027.607-.056.911a6.006,6.006,0,0,1-.3,1.9,1.8,1.8,0,0,1-1.1.855,7.581,7.581,0,0,1-2.208.3c-.173,0-1.541,0-2.91-.007-.6,0-.589,0-1.278-.007,1.206.961,2.368,1.9,2.368,1.9s-1.176.947-2.39,1.914h.163c1.882.008,3.085.011,3.385.011.688,0,1.381-.027,2.079-.068.867-.05,1.739-.119,2.612-.181a6.345,6.345,0,0,0,3.228-1.352,3.51,3.51,0,0,0,.828-1.076,6.038,6.038,0,0,0,.551-2.151c.083-.91.138-1.794.138-2.677,0-.5-.028-.966-.055-1.462m-20.571,5.746h5.2l-.234-.61h-.209c-.788,0-1.533-.007-2.168-.011-1.044-.006-1.79-.012-1.936-.02l-.993-.083a3.8,3.8,0,0,1-2.042-.386,2.221,2.221,0,0,1-.524-.524A3.6,3.6,0,0,1,462,57.724a4.264,4.264,0,0,1,.5-2.539,2.331,2.331,0,0,1,1.876-.855,11.592,11.592,0,0,1,1.932-.138l2.077.008c.423,0,.88,0,1.355.006-1.213-.966-2.387-1.911-2.387-1.911s1.114-.9,2.293-1.835L468,50.448c-.8,0-.943-.008-1.225-.008-1.6,0-3.173.111-4.773.221a6.774,6.774,0,0,0-3.7,1.325,4.611,4.611,0,0,0-1.351,3.5c-.055.939-.084,1.849-.084,2.759.028,1.6.084,3.311,1.242,4.58a5.577,5.577,0,0,0,3.063,1.517c.358.083.717.11,1.049.165.8.055,1.6.083,2.4.111.161.01.7.02,1.471.029.435,0,.944.01,1.5.014l1.594.011,1.1.006.233-.608h-5.2Z" transform="translate(-405.139 -44.729)" fill="#fff"/>
    <path id="Tracé_63" data-name="Tracé 63" d="M764.533,53.035a4.273,4.273,0,0,0-1.269-1.463,8.09,8.09,0,0,0-4.966-1.379c-2.677,0-4,.165-5.16.8a3.336,3.336,0,0,0-1.352,1.242,4.865,4.865,0,0,0-.386.634V50.441h-5.049V64.236h5.076V58.221a5.13,5.13,0,0,1,.276-2.207,3.515,3.515,0,0,1,2.428-1.683,7.239,7.239,0,0,1,1.159-.111c.275,0,2.428.111,2.758.165a2.1,2.1,0,0,1,1.932,1.6,5.986,5.986,0,0,1,.083,1.269v6.979h5.1V56.208a7.25,7.25,0,0,0-.634-3.173" transform="translate(-661.843 -44.509)" fill="#fff"/>
    <path id="Tracé_64" data-name="Tracé 64" d="M964.672,57.732a3.243,3.243,0,0,0-1.1-1.269,7.063,7.063,0,0,0-4.249-.938c-.828-.028-1.627-.028-2.455-.055a38,38,0,0,1-4.553-.221c-.054-.027-.772-.276-.8-.772,0-.414.5-.856.938-1.021a3.062,3.062,0,0,1,1.1-.083c.524,0,1.049-.027,1.573-.027.469,0,.938.027,1.406.054a9.994,9.994,0,0,1,1.822.194c.5.165.607.386.744.855l5.3.028a3.642,3.642,0,0,0-.91-2.815,4.712,4.712,0,0,0-2.842-1.214A37.834,37.834,0,0,0,955.4,50.2c-.855,0-1.71.027-2.566.055a14.578,14.578,0,0,0-3.973.386,3.326,3.326,0,0,0-2.566,2.7,8.483,8.483,0,0,0-.165,1.517,3.951,3.951,0,0,0,.359,1.821,3.168,3.168,0,0,0,1.048,1.214,6.746,6.746,0,0,0,3.945.993c1.214.055,2.428.083,3.614.111a19.706,19.706,0,0,1,4,.248,1.043,1.043,0,0,1,.635.828,1.376,1.376,0,0,1-.91,1.048,2.557,2.557,0,0,1-1.187.194h-1.794a24.479,24.479,0,0,1-3.311-.194,1.688,1.688,0,0,1-1.1-.745,2.35,2.35,0,0,1-.137-.634l-5.381-.028a5.088,5.088,0,0,0,.442,2.4,3.949,3.949,0,0,0,3.007,2.014,18.547,18.547,0,0,0,3.338.276c1.463.054,2.925.083,4.359.083,1.077,0,2.1,0,3.145-.083,2.345-.194,3.614-.966,4.166-1.876a5.974,5.974,0,0,0,.662-2.925,4.225,4.225,0,0,0-.359-1.876" transform="translate(-838.807 -44.516)" fill="#fff"/>
    <path id="Tracé_65" data-name="Tracé 65" d="M1161.865,18.23l-1.158-1.077a21.7,21.7,0,0,0-3.311-2.787c1.02-.938,2.069-1.848,3.09-2.787.882-.8,1.765-1.6,2.676-2.372.58-.47,1.16-.883,1.766-1.325h-7.036l-5.021,4.553h-1.077V2.2h-5.1V21.678h5.1V16.1h1.407l5.573,5.573h7.063c-1.352-1.131-2.677-2.262-3.973-3.448" transform="translate(-1016.852 -1.951)" fill="#fff"/>
    <path id="Tracé_66" data-name="Tracé 66" d="M1201.03,5.98h19.617V2.2H1201.03Zm14.485,15.7h5.1V7.883h-5.1Z" transform="translate(-1065.039 -1.951)" fill="#fff"/>
    <path id="Tracé_67" data-name="Tracé 67" d="M576.081,68.119h-5.2l.942,2.453s.078.549-.471.177-4.964-3.924-4.964-3.924h9.693Z" transform="translate(-502.257 -59.258)" fill="#fff"/>
    <path id="Tracé_68" data-name="Tracé 68" d="M576.081,33.78h-5.2l.942-2.453s.078-.549-.471-.177-4.964,3.924-4.964,3.924h9.693Z" transform="translate(-502.257 -27.509)" fill="#fff"/>
    <path id="Tracé_69" data-name="Tracé 69" d="M518.579,126.369h5.2l-.942-2.453s-.078-.549.471-.177,4.964,3.924,4.964,3.924h-9.693Z" transform="translate(-459.861 -109.614)" fill="#fff"/>
    <path id="Tracé_70" data-name="Tracé 70" d="M518.579,160.708h5.2l-.942,2.453s-.078.549.471.177,4.964-3.924,4.964-3.924h-9.693Z" transform="translate(-459.861 -141.363)" fill="#fff"/>
  </g>
</svg>
