<svg xmlns="http://www.w3.org/2000/svg" xmlns:xlink="http://www.w3.org/1999/xlink" width="1908.316" height="790" viewBox="0 0 1908.316 790">
  <defs>
    <clipPath id="clip-path">
      <rect id="Rectangle_119" data-name="Rectangle 119" width="160" height="160" transform="translate(0.379 0)" fill="none"/>
    </clipPath>
    <clipPath id="clip-path-2">
      <rect id="Rectangle_120" data-name="Rectangle 120" width="160" height="160" transform="translate(-0.156 159.999) rotate(-90)" fill="none"/>
    </clipPath>
    <clipPath id="clip-path-3">
      <rect id="Rectangle_124" data-name="Rectangle 124" width="160" height="160" transform="translate(160.102 0) rotate(90)" fill="none"/>
    </clipPath>
    <clipPath id="clip-path-4">
      <rect id="Rectangle_125" data-name="Rectangle 125" width="160" height="160" transform="translate(159.844 0) rotate(90)" fill="none"/>
    </clipPath>
    <clipPath id="clip-path-5">
      <rect id="Rectangle_126" data-name="Rectangle 126" width="160" height="160" transform="translate(159.741 0) rotate(90)" fill="none"/>
    </clipPath>
  </defs>
  <g id="pattern" transform="translate(1908.472 790) rotate(180)" opacity="0.03">
    <g id="Groupe_60" data-name="Groupe 60" transform="translate(318.092 630)">
      <g id="Groupe_59" data-name="Groupe 59" transform="translate(0 0)" clip-path="url(#clip-path)">
        <g id="Groupe_58" data-name="Groupe 58" transform="translate(-73.334 -73.767)">
          <line id="Ligne_121" data-name="Ligne 121" x1="161.486" y2="161.486" transform="translate(12.071 12.071)" fill="none" stroke="#f2f2f2" stroke-miterlimit="10" stroke-width="3"/>
          <line id="Ligne_122" data-name="Ligne 122" x1="161.486" y2="161.486" transform="translate(0 0)" fill="none" stroke="#f2f2f2" stroke-miterlimit="10" stroke-width="3"/>
          <line id="Ligne_123" data-name="Ligne 123" x1="161.486" y2="161.486" transform="translate(24.142 24.142)" fill="none" stroke="#f2f2f2" stroke-miterlimit="10" stroke-width="3"/>
          <line id="Ligne_124" data-name="Ligne 124" x1="161.486" y2="161.486" transform="translate(36.214 36.214)" fill="none" stroke="#f2f2f2" stroke-miterlimit="10" stroke-width="3"/>
          <line id="Ligne_125" data-name="Ligne 125" x1="161.486" y2="161.486" transform="translate(48.285 48.285)" fill="none" stroke="#f2f2f2" stroke-miterlimit="10" stroke-width="3"/>
          <line id="Ligne_126" data-name="Ligne 126" x1="161.486" y2="161.486" transform="translate(60.356 60.356)" fill="none" stroke="#f2f2f2" stroke-miterlimit="10" stroke-width="3"/>
          <line id="Ligne_127" data-name="Ligne 127" x1="161.486" y2="161.486" transform="translate(72.428 72.427)" fill="none" stroke="#f2f2f2" stroke-miterlimit="10" stroke-width="3"/>
          <line id="Ligne_128" data-name="Ligne 128" x1="161.486" y2="161.486" transform="translate(84.499 84.499)" fill="none" stroke="#f2f2f2" stroke-miterlimit="10" stroke-width="3"/>
          <line id="Ligne_129" data-name="Ligne 129" x1="161.486" y2="161.486" transform="translate(96.57 96.57)" fill="none" stroke="#f2f2f2" stroke-miterlimit="10" stroke-width="3"/>
          <line id="Ligne_130" data-name="Ligne 130" x1="161.486" y2="161.486" transform="translate(108.641 108.641)" fill="none" stroke="#f2f2f2" stroke-miterlimit="10" stroke-width="3"/>
          <line id="Ligne_131" data-name="Ligne 131" x1="161.486" y2="161.486" transform="translate(120.712 120.712)" fill="none" stroke="#f2f2f2" stroke-miterlimit="10" stroke-width="3"/>
          <line id="Ligne_132" data-name="Ligne 132" x1="161.486" y2="161.486" transform="translate(132.784 132.784)" fill="none" stroke="#f2f2f2" stroke-miterlimit="10" stroke-width="3"/>
          <line id="Ligne_133" data-name="Ligne 133" x1="161.486" y2="161.486" transform="translate(144.855 144.855)" fill="none" stroke="#f2f2f2" stroke-miterlimit="10" stroke-width="3"/>
        </g>
      </g>
    </g>
    <g id="Groupe_63" data-name="Groupe 63" transform="translate(160.626 158)">
      <g id="Groupe_62" data-name="Groupe 62" transform="translate(0 0)" clip-path="url(#clip-path-2)">
        <g id="Groupe_61" data-name="Groupe 61" transform="translate(-73.991 -73.363)">
          <line id="Ligne_134" data-name="Ligne 134" x2="161.486" y2="161.486" transform="translate(12.071 132.784)" fill="none" stroke="#f2f2f2" stroke-miterlimit="10" stroke-width="3"/>
          <line id="Ligne_135" data-name="Ligne 135" x2="161.486" y2="161.486" transform="translate(0 144.855)" fill="none" stroke="#f2f2f2" stroke-miterlimit="10" stroke-width="3"/>
          <line id="Ligne_136" data-name="Ligne 136" x2="161.486" y2="161.486" transform="translate(24.142 120.712)" fill="none" stroke="#f2f2f2" stroke-miterlimit="10" stroke-width="3"/>
          <line id="Ligne_137" data-name="Ligne 137" x2="161.486" y2="161.486" transform="translate(36.214 108.641)" fill="none" stroke="#f2f2f2" stroke-miterlimit="10" stroke-width="3"/>
          <line id="Ligne_138" data-name="Ligne 138" x2="161.486" y2="161.486" transform="translate(48.285 96.57)" fill="none" stroke="#f2f2f2" stroke-miterlimit="10" stroke-width="3"/>
          <line id="Ligne_139" data-name="Ligne 139" x2="161.486" y2="161.486" transform="translate(60.356 84.499)" fill="none" stroke="#f2f2f2" stroke-miterlimit="10" stroke-width="3"/>
          <line id="Ligne_140" data-name="Ligne 140" x2="161.486" y2="161.486" transform="translate(72.427 72.427)" fill="none" stroke="#f2f2f2" stroke-miterlimit="10" stroke-width="3"/>
          <line id="Ligne_141" data-name="Ligne 141" x2="161.486" y2="161.486" transform="translate(84.499 60.356)" fill="none" stroke="#f2f2f2" stroke-miterlimit="10" stroke-width="3"/>
          <line id="Ligne_142" data-name="Ligne 142" x2="161.486" y2="161.486" transform="translate(96.57 48.285)" fill="none" stroke="#f2f2f2" stroke-miterlimit="10" stroke-width="3"/>
          <line id="Ligne_143" data-name="Ligne 143" x2="161.486" y2="161.486" transform="translate(108.641 36.214)" fill="none" stroke="#f2f2f2" stroke-miterlimit="10" stroke-width="3"/>
          <line id="Ligne_144" data-name="Ligne 144" x2="161.486" y2="161.486" transform="translate(120.712 24.142)" fill="none" stroke="#f2f2f2" stroke-miterlimit="10" stroke-width="3"/>
          <line id="Ligne_145" data-name="Ligne 145" x2="161.486" y2="161.486" transform="translate(132.784 12.071)" fill="none" stroke="#f2f2f2" stroke-miterlimit="10" stroke-width="3"/>
          <line id="Ligne_146" data-name="Ligne 146" x2="161.486" y2="161.486" transform="translate(144.855 0)" fill="none" stroke="#f2f2f2" stroke-miterlimit="10" stroke-width="3"/>
        </g>
      </g>
    </g>
    <g id="Groupe_75" data-name="Groupe 75" transform="translate(953.368 630)">
      <g id="Groupe_74" data-name="Groupe 74" transform="translate(0 0)" clip-path="url(#clip-path-3)">
        <g id="Groupe_73" data-name="Groupe 73" transform="translate(-72.31 -73.233)">
          <line id="Ligne_186" data-name="Ligne 186" x1="161.486" y1="161.486" transform="translate(132.784 12.071)" fill="none" stroke="#f2f2f2" stroke-miterlimit="10" stroke-width="3"/>
          <line id="Ligne_187" data-name="Ligne 187" x1="161.486" y1="161.486" transform="translate(144.855 0)" fill="none" stroke="#f2f2f2" stroke-miterlimit="10" stroke-width="3"/>
          <line id="Ligne_188" data-name="Ligne 188" x1="161.486" y1="161.486" transform="translate(120.712 24.142)" fill="none" stroke="#f2f2f2" stroke-miterlimit="10" stroke-width="3"/>
          <line id="Ligne_189" data-name="Ligne 189" x1="161.486" y1="161.486" transform="translate(108.641 36.214)" fill="none" stroke="#f2f2f2" stroke-miterlimit="10" stroke-width="3"/>
          <line id="Ligne_190" data-name="Ligne 190" x1="161.486" y1="161.486" transform="translate(96.57 48.285)" fill="none" stroke="#f2f2f2" stroke-miterlimit="10" stroke-width="3"/>
          <line id="Ligne_191" data-name="Ligne 191" x1="161.486" y1="161.486" transform="translate(84.499 60.356)" fill="none" stroke="#f2f2f2" stroke-miterlimit="10" stroke-width="3"/>
          <line id="Ligne_192" data-name="Ligne 192" x1="161.486" y1="161.486" transform="translate(72.427 72.427)" fill="none" stroke="#f2f2f2" stroke-miterlimit="10" stroke-width="3"/>
          <line id="Ligne_193" data-name="Ligne 193" x1="161.486" y1="161.486" transform="translate(60.356 84.499)" fill="none" stroke="#f2f2f2" stroke-miterlimit="10" stroke-width="3"/>
          <line id="Ligne_194" data-name="Ligne 194" x1="161.486" y1="161.486" transform="translate(48.285 96.57)" fill="none" stroke="#f2f2f2" stroke-miterlimit="10" stroke-width="3"/>
          <line id="Ligne_195" data-name="Ligne 195" x1="161.486" y1="161.486" transform="translate(36.214 108.641)" fill="none" stroke="#f2f2f2" stroke-miterlimit="10" stroke-width="3"/>
          <line id="Ligne_196" data-name="Ligne 196" x1="161.486" y1="161.486" transform="translate(24.142 120.712)" fill="none" stroke="#f2f2f2" stroke-miterlimit="10" stroke-width="3"/>
          <line id="Ligne_197" data-name="Ligne 197" x1="161.486" y1="161.486" transform="translate(12.071 132.784)" fill="none" stroke="#f2f2f2" stroke-miterlimit="10" stroke-width="3"/>
          <line id="Ligne_198" data-name="Ligne 198" x1="161.486" y1="161.486" transform="translate(0 144.855)" fill="none" stroke="#f2f2f2" stroke-miterlimit="10" stroke-width="3"/>
        </g>
      </g>
    </g>
    <g id="Groupe_78" data-name="Groupe 78" transform="translate(1588.626 158)">
      <g id="Groupe_77" data-name="Groupe 77" transform="translate(0 0)" clip-path="url(#clip-path-4)">
        <g id="Groupe_76" data-name="Groupe 76" transform="translate(-72.821 -73.362)">
          <line id="Ligne_199" data-name="Ligne 199" x1="161.486" y1="161.486" transform="translate(132.784 12.071)" fill="none" stroke="#f2f2f2" stroke-miterlimit="10" stroke-width="3"/>
          <line id="Ligne_200" data-name="Ligne 200" x1="161.486" y1="161.486" transform="translate(144.855 0)" fill="none" stroke="#f2f2f2" stroke-miterlimit="10" stroke-width="3"/>
          <line id="Ligne_201" data-name="Ligne 201" x1="161.486" y1="161.486" transform="translate(120.712 24.142)" fill="none" stroke="#f2f2f2" stroke-miterlimit="10" stroke-width="3"/>
          <line id="Ligne_202" data-name="Ligne 202" x1="161.486" y1="161.486" transform="translate(108.641 36.214)" fill="none" stroke="#f2f2f2" stroke-miterlimit="10" stroke-width="3"/>
          <line id="Ligne_203" data-name="Ligne 203" x1="161.486" y1="161.486" transform="translate(96.57 48.285)" fill="none" stroke="#f2f2f2" stroke-miterlimit="10" stroke-width="3"/>
          <line id="Ligne_204" data-name="Ligne 204" x1="161.486" y1="161.486" transform="translate(84.499 60.356)" fill="none" stroke="#f2f2f2" stroke-miterlimit="10" stroke-width="3"/>
          <line id="Ligne_205" data-name="Ligne 205" x1="161.486" y1="161.486" transform="translate(72.427 72.427)" fill="none" stroke="#f2f2f2" stroke-miterlimit="10" stroke-width="3"/>
          <line id="Ligne_206" data-name="Ligne 206" x1="161.486" y1="161.486" transform="translate(60.356 84.499)" fill="none" stroke="#f2f2f2" stroke-miterlimit="10" stroke-width="3"/>
          <line id="Ligne_207" data-name="Ligne 207" x1="161.486" y1="161.486" transform="translate(48.285 96.57)" fill="none" stroke="#f2f2f2" stroke-miterlimit="10" stroke-width="3"/>
          <line id="Ligne_208" data-name="Ligne 208" x1="161.486" y1="161.486" transform="translate(36.214 108.641)" fill="none" stroke="#f2f2f2" stroke-miterlimit="10" stroke-width="3"/>
          <line id="Ligne_209" data-name="Ligne 209" x1="161.486" y1="161.486" transform="translate(24.142 120.712)" fill="none" stroke="#f2f2f2" stroke-miterlimit="10" stroke-width="3"/>
          <line id="Ligne_210" data-name="Ligne 210" x1="161.486" y1="161.486" transform="translate(12.071 132.784)" fill="none" stroke="#f2f2f2" stroke-miterlimit="10" stroke-width="3"/>
          <line id="Ligne_211" data-name="Ligne 211" x1="161.486" y1="161.486" transform="translate(0 144.855)" fill="none" stroke="#f2f2f2" stroke-miterlimit="10" stroke-width="3"/>
        </g>
      </g>
    </g>
    <g id="Groupe_81" data-name="Groupe 81" transform="translate(635.73 473)">
      <g id="Groupe_80" data-name="Groupe 80" transform="translate(0 0)" clip-path="url(#clip-path-5)">
        <g id="Groupe_79" data-name="Groupe 79" transform="translate(-72.555 -73.609)">
          <line id="Ligne_212" data-name="Ligne 212" x1="161.486" y1="161.486" transform="translate(132.784 12.071)" fill="none" stroke="#f2f2f2" stroke-miterlimit="10" stroke-width="3"/>
          <line id="Ligne_213" data-name="Ligne 213" x1="161.486" y1="161.486" transform="translate(144.855 0)" fill="none" stroke="#f2f2f2" stroke-miterlimit="10" stroke-width="3"/>
          <line id="Ligne_214" data-name="Ligne 214" x1="161.486" y1="161.486" transform="translate(120.712 24.142)" fill="none" stroke="#f2f2f2" stroke-miterlimit="10" stroke-width="3"/>
          <line id="Ligne_215" data-name="Ligne 215" x1="161.486" y1="161.486" transform="translate(108.641 36.214)" fill="none" stroke="#f2f2f2" stroke-miterlimit="10" stroke-width="3"/>
          <line id="Ligne_216" data-name="Ligne 216" x1="161.486" y1="161.486" transform="translate(96.57 48.285)" fill="none" stroke="#f2f2f2" stroke-miterlimit="10" stroke-width="3"/>
          <line id="Ligne_217" data-name="Ligne 217" x1="161.486" y1="161.486" transform="translate(84.499 60.356)" fill="none" stroke="#f2f2f2" stroke-miterlimit="10" stroke-width="3"/>
          <line id="Ligne_218" data-name="Ligne 218" x1="161.486" y1="161.486" transform="translate(72.427 72.427)" fill="none" stroke="#f2f2f2" stroke-miterlimit="10" stroke-width="3"/>
          <line id="Ligne_219" data-name="Ligne 219" x1="161.486" y1="161.486" transform="translate(60.356 84.499)" fill="none" stroke="#f2f2f2" stroke-miterlimit="10" stroke-width="3"/>
          <line id="Ligne_220" data-name="Ligne 220" x1="161.486" y1="161.486" transform="translate(48.285 96.57)" fill="none" stroke="#f2f2f2" stroke-miterlimit="10" stroke-width="3"/>
          <line id="Ligne_221" data-name="Ligne 221" x1="161.486" y1="161.486" transform="translate(36.214 108.641)" fill="none" stroke="#f2f2f2" stroke-miterlimit="10" stroke-width="3"/>
          <line id="Ligne_222" data-name="Ligne 222" x1="161.486" y1="161.486" transform="translate(24.142 120.712)" fill="none" stroke="#f2f2f2" stroke-miterlimit="10" stroke-width="3"/>
          <line id="Ligne_223" data-name="Ligne 223" x1="161.486" y1="161.486" transform="translate(12.071 132.784)" fill="none" stroke="#f2f2f2" stroke-miterlimit="10" stroke-width="3"/>
          <line id="Ligne_224" data-name="Ligne 224" x1="161.486" y1="161.486" transform="translate(0 144.855)" fill="none" stroke="#f2f2f2" stroke-miterlimit="10" stroke-width="3"/>
        </g>
      </g>
    </g>
    <rect id="Rectangle_127" data-name="Rectangle 127" width="160" height="160" transform="translate(160.47 790) rotate(180)" fill="#f2f2f2"/>
    <rect id="Rectangle_128" data-name="Rectangle 128" width="160" height="161" transform="translate(478.471 161) rotate(180)" fill="#f2f2f2"/>
    <rect id="Rectangle_129" data-name="Rectangle 129" width="160" height="161" transform="translate(795.47 161) rotate(180)" fill="#d2d4d9"/>
    <rect id="Rectangle_131" data-name="Rectangle 131" width="161" height="160" transform="translate(1112.471 158)" fill="#656a73"/>
    <rect id="Rectangle_132" data-name="Rectangle 132" width="160" height="160" transform="translate(1272.47 315)" fill="#d2d4d9"/>
    <rect id="Rectangle_133" data-name="Rectangle 133" width="160" height="161" transform="translate(1113.471 161) rotate(180)" fill="#d2d4d9"/>
    <rect id="Rectangle_135" data-name="Rectangle 135" width="161" height="160" transform="translate(1430.471 161) rotate(-90)" fill="#656a73"/>
    <rect id="Rectangle_138" data-name="Rectangle 138" width="160" height="160" transform="translate(635.47 318) rotate(-90)" fill="#949ba6"/>
    <rect id="Rectangle_139" data-name="Rectangle 139" width="160" height="160" transform="translate(476.47 475) rotate(-90)" fill="#d2d4d9"/>
    <rect id="Rectangle_140" data-name="Rectangle 140" width="160" height="160" transform="translate(318.471 633) rotate(-90)" fill="#f2f2f2"/>
    <rect id="Rectangle_145" data-name="Rectangle 145" width="160" height="160" transform="translate(1430.47 318) rotate(-90)" fill="#949ba6"/>
    <rect id="Rectangle_146" data-name="Rectangle 146" width="160" height="160" transform="translate(953.47 633) rotate(-90)" fill="#d2d4d9"/>
    <rect id="Rectangle_147" data-name="Rectangle 147" width="160" height="160" transform="translate(635.471 790) rotate(-90)" fill="#949ba6"/>
    <rect id="Rectangle_148" data-name="Rectangle 148" width="160" height="160" transform="translate(1272.471 790) rotate(-90)" fill="#949ba6"/>
    <rect id="Rectangle_150" data-name="Rectangle 150" width="160" height="160" transform="translate(1430.47 633) rotate(-90)" fill="#949ba6"/>
    <rect id="Rectangle_151" data-name="Rectangle 151" width="160" height="160" transform="translate(1588.471 790) rotate(-90)" fill="#d2d4d9"/>
    <path id="Tracé_198" data-name="Tracé 198" d="M160.122,160.122V0H0V320.245Z" transform="translate(1271.512 0.387)" fill="#f2f2f2"/>
    <path id="Tracé_199" data-name="Tracé 199" d="M0,0H160.123V160.122Z" transform="translate(953.631 157.755)" fill="#d2d4d9"/>
    <path id="Tracé_200" data-name="Tracé 200" d="M0,0H160.123V160.122Z" transform="translate(794.69 629.877)" fill="#949ba6"/>
    <path id="Tracé_202" data-name="Tracé 202" d="M160.123,160.122h0V0L0,160.122H0V320.245H160.123Z" transform="translate(1748.348 313.296)" fill="#949ba6"/>
    <rect id="Rectangle_156" data-name="Rectangle 156" width="160" height="160" transform="translate(0.47 315)" fill="#656a73"/>
    <path id="Tracé_204" data-name="Tracé 204" d="M0,160.122H160.123A160.121,160.121,0,0,0,320.245,0H160.123A160.124,160.124,0,0,0,0,160.122Z" transform="translate(317.614 157.755)" fill="#d2d4d9"/>
    <path id="Tracé_205" data-name="Tracé 205" d="M320.245,0A160.121,160.121,0,0,1,160.122,160.122,160.122,160.122,0,0,1,0,0Z" transform="translate(160.278 315.129)" fill="#f2f2f2"/>
    <path id="Tracé_207" data-name="Tracé 207" d="M320.245,0A160.124,160.124,0,0,1,160.122,160.122,160.122,160.122,0,0,1,0,0Z" transform="translate(1428.26 315.129)" fill="#656a73"/>
    <path id="Tracé_209" data-name="Tracé 209" d="M0,0A160.122,160.122,0,0,1,160.122,160.123,160.123,160.123,0,0,1,0,320.245Z" transform="translate(1112.572 469.754)" fill="#949ba6"/>
    <path id="Tracé_210" data-name="Tracé 210" d="M0,160.123a160.122,160.122,0,1,1,320.245,0Z" transform="translate(0.156 472.503)" fill="#d2d4d9"/>
    <path id="Tracé_211" data-name="Tracé 211" d="M320.245,0A160.122,160.122,0,0,1,160.123,160.122,160.123,160.123,0,0,1,0,0Z" transform="translate(952.904 315.129)" fill="#d2d4d9"/>
    <path id="Tracé_212" data-name="Tracé 212" d="M160.122,320.245A160.123,160.123,0,0,1,160.122,0Z" transform="translate(794.691 313.296)" fill="#949ba6"/>
    <path id="Tracé_214" data-name="Tracé 214" d="M160.122,0V160.123H0Z" transform="translate(160.279 629.876)" fill="#656a73"/>
    <path id="Tracé_215" data-name="Tracé 215" d="M160.122,0H0V160.122H160.122L320.245,0Z" transform="translate(0.157 0.387)" fill="#d2d4d9"/>
    <rect id="Rectangle_157" data-name="Rectangle 157" width="160" height="160" transform="translate(476.471 790) rotate(-90)" fill="#f2f2f2"/>
    <path id="Tracé_216" data-name="Tracé 216" d="M160.123,160.122H0V0Z" transform="translate(476.809 472.503)" fill="#d2d4d9"/>
    <path id="Tracé_217" data-name="Tracé 217" d="M0,160.122V0H160.122Z" transform="translate(1112.571 0.387)" fill="#949ba6"/>
    <path id="Tracé_218" data-name="Tracé 218" d="M160.122,160.122H0V0Z" transform="translate(1588.381 0.386)" fill="#d2d4d9"/>
    <path id="Tracé_222" data-name="Tracé 222" d="M0,0A160.123,160.123,0,0,0,160.123,160.122V0Z" transform="translate(794.689 157.755)" fill="#949ba6"/>
    <path id="Tracé_223" data-name="Tracé 223" d="M0,160.122A160.123,160.123,0,0,0,160.122,0H0Z" transform="translate(635.75 315.129)" fill="#949ba6"/>
    <path id="Tracé_226" data-name="Tracé 226" d="M160.122,160.122A160.121,160.121,0,0,0,0,0V160.122Z" transform="translate(476.808 0.388)" fill="#949ba6"/>
    <path id="Tracé_227" data-name="Tracé 227" d="M0,0A160.123,160.123,0,0,0,160.123,160.123V0Z" transform="translate(1271.513 472.503)" fill="#f2f2f2"/>
    <path id="Tracé_228" data-name="Tracé 228" d="M0,160.122A160.123,160.123,0,0,0,160.122,0H0Z" transform="translate(1430.454 629.877)" fill="#949ba6"/>
    <path id="Tracé_229" data-name="Tracé 229" d="M160.123,160.123A160.123,160.123,0,0,0,0,0V160.123Z" transform="translate(1588.382 472.503)" fill="#949ba6"/>
    <path id="Tracé_230" data-name="Tracé 230" d="M0,0A160.122,160.122,0,0,0,160.123,160.122V0Z" transform="translate(1748.349 629.877)" fill="#d2d4d9"/>
    <path id="Tracé_233" data-name="Tracé 233" d="M160.123,160.122V0H0V160.122A160.122,160.122,0,0,0,160.123,320.245Z" transform="translate(1748.349 0.388)" fill="#656a73"/>
  </g>
</svg>
