<svg xmlns="http://www.w3.org/2000/svg" xmlns:xlink="http://www.w3.org/1999/xlink" width="1920" height="1279.937" viewBox="0 0 1920 1279.937">
  <defs>
    <clipPath id="clip-path">
      <rect id="Rectangle_119" data-name="Rectangle 119" width="161" height="158" transform="translate(-0.496 0.496)" fill="none"/>
    </clipPath>
    <clipPath id="clip-path-2">
      <rect id="Rectangle_120" data-name="Rectangle 120" width="160" height="158" transform="translate(0.494 160.01) rotate(-90)" fill="none"/>
    </clipPath>
    <clipPath id="clip-path-3">
      <rect id="Rectangle_121" data-name="Rectangle 121" width="158" height="160" transform="translate(160.009 0.495) rotate(90)" fill="none"/>
    </clipPath>
    <clipPath id="clip-path-4">
      <rect id="Rectangle_122" data-name="Rectangle 122" width="161" height="161" transform="translate(160.504 -0.495) rotate(90)" fill="none"/>
    </clipPath>
    <clipPath id="clip-path-5">
      <rect id="Rectangle_123" data-name="Rectangle 123" width="158" height="158" transform="translate(158.495 0.495) rotate(90)" fill="none"/>
    </clipPath>
    <clipPath id="clip-path-6">
      <rect id="Rectangle_124" data-name="Rectangle 124" width="158" height="161" transform="translate(160.998 0.496) rotate(90)" fill="none"/>
    </clipPath>
    <clipPath id="clip-path-7">
      <rect id="Rectangle_125" data-name="Rectangle 125" width="160" height="158" transform="translate(158.495 0.01) rotate(90)" fill="none"/>
    </clipPath>
    <clipPath id="clip-path-8">
      <rect id="Rectangle_126" data-name="Rectangle 126" width="161" height="160" transform="translate(160.009 0) rotate(90)" fill="none"/>
    </clipPath>
  </defs>
  <g id="Objects" transform="translate(0.001 0)" opacity="0.05">
    <g id="Groupe_60" data-name="Groupe 60" transform="translate(319.496 1120.504)">
      <g id="Groupe_59" data-name="Groupe 59" transform="translate(0 0)" clip-path="url(#clip-path)">
        <g id="Groupe_58" data-name="Groupe 58" transform="translate(-72.561 -74.143)">
          <line id="Ligne_121" data-name="Ligne 121" x1="161.355" y2="161.355" transform="translate(12.061 12.061)" fill="none" stroke="#f2f2f2" stroke-miterlimit="10" stroke-width="3"/>
          <line id="Ligne_122" data-name="Ligne 122" x1="161.355" y2="161.355" fill="none" stroke="#f2f2f2" stroke-miterlimit="10" stroke-width="3"/>
          <line id="Ligne_123" data-name="Ligne 123" x1="161.355" y2="161.355" transform="translate(24.123 24.123)" fill="none" stroke="#f2f2f2" stroke-miterlimit="10" stroke-width="3"/>
          <line id="Ligne_124" data-name="Ligne 124" x1="161.355" y2="161.355" transform="translate(36.184 36.184)" fill="none" stroke="#f2f2f2" stroke-miterlimit="10" stroke-width="3"/>
          <line id="Ligne_125" data-name="Ligne 125" x1="161.355" y2="161.355" transform="translate(48.246 48.246)" fill="none" stroke="#f2f2f2" stroke-miterlimit="10" stroke-width="3"/>
          <line id="Ligne_126" data-name="Ligne 126" x1="161.355" y2="161.355" transform="translate(60.307 60.307)" fill="none" stroke="#f2f2f2" stroke-miterlimit="10" stroke-width="3"/>
          <line id="Ligne_127" data-name="Ligne 127" x1="161.355" y2="161.355" transform="translate(72.369 72.369)" fill="none" stroke="#f2f2f2" stroke-miterlimit="10" stroke-width="3"/>
          <line id="Ligne_128" data-name="Ligne 128" x1="161.355" y2="161.355" transform="translate(84.43 84.43)" fill="none" stroke="#f2f2f2" stroke-miterlimit="10" stroke-width="3"/>
          <line id="Ligne_129" data-name="Ligne 129" x1="161.355" y2="161.355" transform="translate(96.491 96.491)" fill="none" stroke="#f2f2f2" stroke-miterlimit="10" stroke-width="3"/>
          <line id="Ligne_130" data-name="Ligne 130" x1="161.355" y2="161.355" transform="translate(108.553 108.553)" fill="none" stroke="#f2f2f2" stroke-miterlimit="10" stroke-width="3"/>
          <line id="Ligne_131" data-name="Ligne 131" x1="161.355" y2="161.355" transform="translate(120.614 120.614)" fill="none" stroke="#f2f2f2" stroke-miterlimit="10" stroke-width="3"/>
          <line id="Ligne_132" data-name="Ligne 132" x1="161.355" y2="161.355" transform="translate(132.676 132.676)" fill="none" stroke="#f2f2f2" stroke-miterlimit="10" stroke-width="3"/>
          <line id="Ligne_133" data-name="Ligne 133" x1="161.355" y2="161.355" transform="translate(144.737 144.737)" fill="none" stroke="#f2f2f2" stroke-miterlimit="10" stroke-width="3"/>
        </g>
      </g>
    </g>
    <g id="Groupe_63" data-name="Groupe 63" transform="translate(160.505 638.99)">
      <g id="Groupe_62" data-name="Groupe 62" transform="translate(0 0)" clip-path="url(#clip-path-2)">
        <g id="Groupe_61" data-name="Groupe 61" transform="translate(-74.097 -72.072)">
          <line id="Ligne_134" data-name="Ligne 134" x2="161.355" y2="161.355" transform="translate(12.061 132.676)" fill="none" stroke="#f2f2f2" stroke-miterlimit="10" stroke-width="3"/>
          <line id="Ligne_135" data-name="Ligne 135" x2="161.355" y2="161.355" transform="translate(0 144.737)" fill="none" stroke="#f2f2f2" stroke-miterlimit="10" stroke-width="3"/>
          <line id="Ligne_136" data-name="Ligne 136" x2="161.355" y2="161.355" transform="translate(24.123 120.614)" fill="none" stroke="#f2f2f2" stroke-miterlimit="10" stroke-width="3"/>
          <line id="Ligne_137" data-name="Ligne 137" x2="161.355" y2="161.355" transform="translate(36.184 108.553)" fill="none" stroke="#f2f2f2" stroke-miterlimit="10" stroke-width="3"/>
          <line id="Ligne_138" data-name="Ligne 138" x2="161.355" y2="161.355" transform="translate(48.246 96.491)" fill="none" stroke="#f2f2f2" stroke-miterlimit="10" stroke-width="3"/>
          <line id="Ligne_139" data-name="Ligne 139" x2="161.355" y2="161.355" transform="translate(60.307 84.43)" fill="none" stroke="#f2f2f2" stroke-miterlimit="10" stroke-width="3"/>
          <line id="Ligne_140" data-name="Ligne 140" x2="161.355" y2="161.355" transform="translate(72.369 72.369)" fill="none" stroke="#f2f2f2" stroke-miterlimit="10" stroke-width="3"/>
          <line id="Ligne_141" data-name="Ligne 141" x2="161.355" y2="161.355" transform="translate(84.43 60.307)" fill="none" stroke="#f2f2f2" stroke-miterlimit="10" stroke-width="3"/>
          <line id="Ligne_142" data-name="Ligne 142" x2="161.355" y2="161.355" transform="translate(96.491 48.246)" fill="none" stroke="#f2f2f2" stroke-miterlimit="10" stroke-width="3"/>
          <line id="Ligne_143" data-name="Ligne 143" x2="161.355" y2="161.355" transform="translate(108.553 36.184)" fill="none" stroke="#f2f2f2" stroke-miterlimit="10" stroke-width="3"/>
          <line id="Ligne_144" data-name="Ligne 144" x2="161.355" y2="161.355" transform="translate(120.614 24.123)" fill="none" stroke="#f2f2f2" stroke-miterlimit="10" stroke-width="3"/>
          <line id="Ligne_145" data-name="Ligne 145" x2="161.355" y2="161.355" transform="translate(132.676 12.061)" fill="none" stroke="#f2f2f2" stroke-miterlimit="10" stroke-width="3"/>
          <line id="Ligne_146" data-name="Ligne 146" x2="161.355" y2="161.355" transform="translate(144.737)" fill="none" stroke="#f2f2f2" stroke-miterlimit="10" stroke-width="3"/>
        </g>
      </g>
    </g>
    <g id="Groupe_66" data-name="Groupe 66" transform="translate(638.99 160.505)">
      <g id="Groupe_65" data-name="Groupe 65" transform="translate(0 0)" clip-path="url(#clip-path-3)">
        <g id="Groupe_64" data-name="Groupe 64" transform="translate(-71.538 -73.563)">
          <line id="Ligne_147" data-name="Ligne 147" x1="161.355" y1="161.355" transform="translate(132.676 12.061)" fill="none" stroke="#f2f2f2" stroke-miterlimit="10" stroke-width="3"/>
          <line id="Ligne_148" data-name="Ligne 148" x1="161.355" y1="161.355" transform="translate(144.737)" fill="none" stroke="#f2f2f2" stroke-miterlimit="10" stroke-width="3"/>
          <line id="Ligne_149" data-name="Ligne 149" x1="161.355" y1="161.355" transform="translate(120.614 24.123)" fill="none" stroke="#f2f2f2" stroke-miterlimit="10" stroke-width="3"/>
          <line id="Ligne_150" data-name="Ligne 150" x1="161.355" y1="161.355" transform="translate(108.553 36.184)" fill="none" stroke="#f2f2f2" stroke-miterlimit="10" stroke-width="3"/>
          <line id="Ligne_151" data-name="Ligne 151" x1="161.355" y1="161.355" transform="translate(96.491 48.246)" fill="none" stroke="#f2f2f2" stroke-miterlimit="10" stroke-width="3"/>
          <line id="Ligne_152" data-name="Ligne 152" x1="161.355" y1="161.355" transform="translate(84.43 60.307)" fill="none" stroke="#f2f2f2" stroke-miterlimit="10" stroke-width="3"/>
          <line id="Ligne_153" data-name="Ligne 153" x1="161.355" y1="161.355" transform="translate(72.369 72.369)" fill="none" stroke="#f2f2f2" stroke-miterlimit="10" stroke-width="3"/>
          <line id="Ligne_154" data-name="Ligne 154" x1="161.355" y1="161.355" transform="translate(60.307 84.43)" fill="none" stroke="#f2f2f2" stroke-miterlimit="10" stroke-width="3"/>
          <line id="Ligne_155" data-name="Ligne 155" x1="161.355" y1="161.355" transform="translate(48.246 96.491)" fill="none" stroke="#f2f2f2" stroke-miterlimit="10" stroke-width="3"/>
          <line id="Ligne_156" data-name="Ligne 156" x1="161.355" y1="161.355" transform="translate(36.184 108.553)" fill="none" stroke="#f2f2f2" stroke-miterlimit="10" stroke-width="3"/>
          <line id="Ligne_157" data-name="Ligne 157" x1="161.355" y1="161.355" transform="translate(24.123 120.614)" fill="none" stroke="#f2f2f2" stroke-miterlimit="10" stroke-width="3"/>
          <line id="Ligne_158" data-name="Ligne 158" x1="161.355" y1="161.355" transform="translate(12.061 132.676)" fill="none" stroke="#f2f2f2" stroke-miterlimit="10" stroke-width="3"/>
          <line id="Ligne_159" data-name="Ligne 159" x1="161.355" y1="161.355" transform="translate(0 144.737)" fill="none" stroke="#f2f2f2" stroke-miterlimit="10" stroke-width="3"/>
        </g>
      </g>
    </g>
    <g id="Groupe_69" data-name="Groupe 69" transform="translate(1279.495 319.495)">
      <g id="Groupe_68" data-name="Groupe 68" transform="translate(0 0)" clip-path="url(#clip-path-4)">
        <g id="Groupe_67" data-name="Groupe 67" transform="translate(-72.075 -72.561)">
          <line id="Ligne_160" data-name="Ligne 160" x1="161.355" y1="161.355" transform="translate(132.676 12.061)" fill="none" stroke="#f2f2f2" stroke-miterlimit="10" stroke-width="3"/>
          <line id="Ligne_161" data-name="Ligne 161" x1="161.355" y1="161.355" transform="translate(144.737)" fill="none" stroke="#f2f2f2" stroke-miterlimit="10" stroke-width="3"/>
          <line id="Ligne_162" data-name="Ligne 162" x1="161.355" y1="161.355" transform="translate(120.614 24.123)" fill="none" stroke="#f2f2f2" stroke-miterlimit="10" stroke-width="3"/>
          <line id="Ligne_163" data-name="Ligne 163" x1="161.355" y1="161.355" transform="translate(108.553 36.184)" fill="none" stroke="#f2f2f2" stroke-miterlimit="10" stroke-width="3"/>
          <line id="Ligne_164" data-name="Ligne 164" x1="161.355" y1="161.355" transform="translate(96.491 48.246)" fill="none" stroke="#f2f2f2" stroke-miterlimit="10" stroke-width="3"/>
          <line id="Ligne_165" data-name="Ligne 165" x1="161.355" y1="161.355" transform="translate(84.43 60.307)" fill="none" stroke="#f2f2f2" stroke-miterlimit="10" stroke-width="3"/>
          <line id="Ligne_166" data-name="Ligne 166" x1="161.355" y1="161.355" transform="translate(72.369 72.369)" fill="none" stroke="#f2f2f2" stroke-miterlimit="10" stroke-width="3"/>
          <line id="Ligne_167" data-name="Ligne 167" x1="161.355" y1="161.355" transform="translate(60.307 84.43)" fill="none" stroke="#f2f2f2" stroke-miterlimit="10" stroke-width="3"/>
          <line id="Ligne_168" data-name="Ligne 168" x1="161.355" y1="161.355" transform="translate(48.246 96.491)" fill="none" stroke="#f2f2f2" stroke-miterlimit="10" stroke-width="3"/>
          <line id="Ligne_169" data-name="Ligne 169" x1="161.355" y1="161.355" transform="translate(36.184 108.553)" fill="none" stroke="#f2f2f2" stroke-miterlimit="10" stroke-width="3"/>
          <line id="Ligne_170" data-name="Ligne 170" x1="161.355" y1="161.355" transform="translate(24.123 120.614)" fill="none" stroke="#f2f2f2" stroke-miterlimit="10" stroke-width="3"/>
          <line id="Ligne_171" data-name="Ligne 171" x1="161.355" y1="161.355" transform="translate(12.061 132.676)" fill="none" stroke="#f2f2f2" stroke-miterlimit="10" stroke-width="3"/>
          <line id="Ligne_172" data-name="Ligne 172" x1="161.355" y1="161.355" transform="translate(0 144.737)" fill="none" stroke="#f2f2f2" stroke-miterlimit="10" stroke-width="3"/>
        </g>
      </g>
    </g>
    <g id="Groupe_72" data-name="Groupe 72" transform="translate(1600.504 160.505)">
      <g id="Groupe_71" data-name="Groupe 71" transform="translate(0 0)" clip-path="url(#clip-path-5)">
        <g id="Groupe_70" data-name="Groupe 70" transform="translate(-73.099 -73.563)">
          <line id="Ligne_173" data-name="Ligne 173" x1="161.355" y1="161.355" transform="translate(132.676 12.061)" fill="none" stroke="#f2f2f2" stroke-miterlimit="10" stroke-width="3"/>
          <line id="Ligne_174" data-name="Ligne 174" x1="161.355" y1="161.355" transform="translate(144.737)" fill="none" stroke="#f2f2f2" stroke-miterlimit="10" stroke-width="3"/>
          <line id="Ligne_175" data-name="Ligne 175" x1="161.355" y1="161.355" transform="translate(120.614 24.123)" fill="none" stroke="#f2f2f2" stroke-miterlimit="10" stroke-width="3"/>
          <line id="Ligne_176" data-name="Ligne 176" x1="161.355" y1="161.355" transform="translate(108.553 36.184)" fill="none" stroke="#f2f2f2" stroke-miterlimit="10" stroke-width="3"/>
          <line id="Ligne_177" data-name="Ligne 177" x1="161.355" y1="161.355" transform="translate(96.491 48.246)" fill="none" stroke="#f2f2f2" stroke-miterlimit="10" stroke-width="3"/>
          <line id="Ligne_178" data-name="Ligne 178" x1="161.355" y1="161.355" transform="translate(84.43 60.307)" fill="none" stroke="#f2f2f2" stroke-miterlimit="10" stroke-width="3"/>
          <line id="Ligne_179" data-name="Ligne 179" x1="161.355" y1="161.355" transform="translate(72.369 72.369)" fill="none" stroke="#f2f2f2" stroke-miterlimit="10" stroke-width="3"/>
          <line id="Ligne_180" data-name="Ligne 180" x1="161.355" y1="161.355" transform="translate(60.307 84.43)" fill="none" stroke="#f2f2f2" stroke-miterlimit="10" stroke-width="3"/>
          <line id="Ligne_181" data-name="Ligne 181" x1="161.355" y1="161.355" transform="translate(48.246 96.491)" fill="none" stroke="#f2f2f2" stroke-miterlimit="10" stroke-width="3"/>
          <line id="Ligne_182" data-name="Ligne 182" x1="161.355" y1="161.355" transform="translate(36.184 108.553)" fill="none" stroke="#f2f2f2" stroke-miterlimit="10" stroke-width="3"/>
          <line id="Ligne_183" data-name="Ligne 183" x1="161.355" y1="161.355" transform="translate(24.123 120.614)" fill="none" stroke="#f2f2f2" stroke-miterlimit="10" stroke-width="3"/>
          <line id="Ligne_184" data-name="Ligne 184" x1="161.355" y1="161.355" transform="translate(12.061 132.676)" fill="none" stroke="#f2f2f2" stroke-miterlimit="10" stroke-width="3"/>
          <line id="Ligne_185" data-name="Ligne 185" x1="161.355" y1="161.355" transform="translate(0 144.737)" fill="none" stroke="#f2f2f2" stroke-miterlimit="10" stroke-width="3"/>
        </g>
      </g>
    </g>
    <g id="Groupe_75" data-name="Groupe 75" transform="translate(960.001 1120.504)">
      <g id="Groupe_74" data-name="Groupe 74" transform="translate(0 0)" clip-path="url(#clip-path-6)">
        <g id="Groupe_73" data-name="Groupe 73" transform="translate(-72.564 -73.609)">
          <line id="Ligne_186" data-name="Ligne 186" x1="161.355" y1="161.355" transform="translate(132.676 12.061)" fill="none" stroke="#f2f2f2" stroke-miterlimit="10" stroke-width="3"/>
          <line id="Ligne_187" data-name="Ligne 187" x1="161.355" y1="161.355" transform="translate(144.737)" fill="none" stroke="#f2f2f2" stroke-miterlimit="10" stroke-width="3"/>
          <line id="Ligne_188" data-name="Ligne 188" x1="161.355" y1="161.355" transform="translate(120.614 24.123)" fill="none" stroke="#f2f2f2" stroke-miterlimit="10" stroke-width="3"/>
          <line id="Ligne_189" data-name="Ligne 189" x1="161.355" y1="161.355" transform="translate(108.553 36.184)" fill="none" stroke="#f2f2f2" stroke-miterlimit="10" stroke-width="3"/>
          <line id="Ligne_190" data-name="Ligne 190" x1="161.355" y1="161.355" transform="translate(96.491 48.246)" fill="none" stroke="#f2f2f2" stroke-miterlimit="10" stroke-width="3"/>
          <line id="Ligne_191" data-name="Ligne 191" x1="161.355" y1="161.355" transform="translate(84.43 60.307)" fill="none" stroke="#f2f2f2" stroke-miterlimit="10" stroke-width="3"/>
          <line id="Ligne_192" data-name="Ligne 192" x1="161.355" y1="161.355" transform="translate(72.369 72.369)" fill="none" stroke="#f2f2f2" stroke-miterlimit="10" stroke-width="3"/>
          <line id="Ligne_193" data-name="Ligne 193" x1="161.355" y1="161.355" transform="translate(60.307 84.43)" fill="none" stroke="#f2f2f2" stroke-miterlimit="10" stroke-width="3"/>
          <line id="Ligne_194" data-name="Ligne 194" x1="161.355" y1="161.355" transform="translate(48.246 96.491)" fill="none" stroke="#f2f2f2" stroke-miterlimit="10" stroke-width="3"/>
          <line id="Ligne_195" data-name="Ligne 195" x1="161.355" y1="161.355" transform="translate(36.184 108.553)" fill="none" stroke="#f2f2f2" stroke-miterlimit="10" stroke-width="3"/>
          <line id="Ligne_196" data-name="Ligne 196" x1="161.355" y1="161.355" transform="translate(24.123 120.614)" fill="none" stroke="#f2f2f2" stroke-miterlimit="10" stroke-width="3"/>
          <line id="Ligne_197" data-name="Ligne 197" x1="161.355" y1="161.355" transform="translate(12.061 132.676)" fill="none" stroke="#f2f2f2" stroke-miterlimit="10" stroke-width="3"/>
          <line id="Ligne_198" data-name="Ligne 198" x1="161.355" y1="161.355" transform="translate(0 144.737)" fill="none" stroke="#f2f2f2" stroke-miterlimit="10" stroke-width="3"/>
        </g>
      </g>
    </g>
    <g id="Groupe_78" data-name="Groupe 78" transform="translate(1600.505 638.99)">
      <g id="Groupe_77" data-name="Groupe 77" transform="translate(0 0)" clip-path="url(#clip-path-7)">
        <g id="Groupe_76" data-name="Groupe 76" transform="translate(-73.1 -72.072)">
          <line id="Ligne_199" data-name="Ligne 199" x1="161.355" y1="161.355" transform="translate(132.676 12.061)" fill="none" stroke="#f2f2f2" stroke-miterlimit="10" stroke-width="3"/>
          <line id="Ligne_200" data-name="Ligne 200" x1="161.355" y1="161.355" transform="translate(144.737)" fill="none" stroke="#f2f2f2" stroke-miterlimit="10" stroke-width="3"/>
          <line id="Ligne_201" data-name="Ligne 201" x1="161.355" y1="161.355" transform="translate(120.614 24.123)" fill="none" stroke="#f2f2f2" stroke-miterlimit="10" stroke-width="3"/>
          <line id="Ligne_202" data-name="Ligne 202" x1="161.355" y1="161.355" transform="translate(108.553 36.184)" fill="none" stroke="#f2f2f2" stroke-miterlimit="10" stroke-width="3"/>
          <line id="Ligne_203" data-name="Ligne 203" x1="161.355" y1="161.355" transform="translate(96.491 48.246)" fill="none" stroke="#f2f2f2" stroke-miterlimit="10" stroke-width="3"/>
          <line id="Ligne_204" data-name="Ligne 204" x1="161.355" y1="161.355" transform="translate(84.43 60.307)" fill="none" stroke="#f2f2f2" stroke-miterlimit="10" stroke-width="3"/>
          <line id="Ligne_205" data-name="Ligne 205" x1="161.355" y1="161.355" transform="translate(72.369 72.369)" fill="none" stroke="#f2f2f2" stroke-miterlimit="10" stroke-width="3"/>
          <line id="Ligne_206" data-name="Ligne 206" x1="161.355" y1="161.355" transform="translate(60.307 84.43)" fill="none" stroke="#f2f2f2" stroke-miterlimit="10" stroke-width="3"/>
          <line id="Ligne_207" data-name="Ligne 207" x1="161.355" y1="161.355" transform="translate(48.246 96.491)" fill="none" stroke="#f2f2f2" stroke-miterlimit="10" stroke-width="3"/>
          <line id="Ligne_208" data-name="Ligne 208" x1="161.355" y1="161.355" transform="translate(36.184 108.553)" fill="none" stroke="#f2f2f2" stroke-miterlimit="10" stroke-width="3"/>
          <line id="Ligne_209" data-name="Ligne 209" x1="161.355" y1="161.355" transform="translate(24.123 120.614)" fill="none" stroke="#f2f2f2" stroke-miterlimit="10" stroke-width="3"/>
          <line id="Ligne_210" data-name="Ligne 210" x1="161.355" y1="161.355" transform="translate(12.061 132.676)" fill="none" stroke="#f2f2f2" stroke-miterlimit="10" stroke-width="3"/>
          <line id="Ligne_211" data-name="Ligne 211" x1="161.355" y1="161.355" transform="translate(0 144.737)" fill="none" stroke="#f2f2f2" stroke-miterlimit="10" stroke-width="3"/>
        </g>
      </g>
    </g>
    <g id="Groupe_81" data-name="Groupe 81" transform="translate(638.99 959.999)">
      <g id="Groupe_80" data-name="Groupe 80" transform="translate(0 0)" clip-path="url(#clip-path-8)">
        <g id="Groupe_79" data-name="Groupe 79" transform="translate(-71.538 -73.097)">
          <line id="Ligne_212" data-name="Ligne 212" x1="161.355" y1="161.355" transform="translate(132.676 12.061)" fill="none" stroke="#f2f2f2" stroke-miterlimit="10" stroke-width="3"/>
          <line id="Ligne_213" data-name="Ligne 213" x1="161.355" y1="161.355" transform="translate(144.737)" fill="none" stroke="#f2f2f2" stroke-miterlimit="10" stroke-width="3"/>
          <line id="Ligne_214" data-name="Ligne 214" x1="161.355" y1="161.355" transform="translate(120.614 24.123)" fill="none" stroke="#f2f2f2" stroke-miterlimit="10" stroke-width="3"/>
          <line id="Ligne_215" data-name="Ligne 215" x1="161.355" y1="161.355" transform="translate(108.553 36.184)" fill="none" stroke="#f2f2f2" stroke-miterlimit="10" stroke-width="3"/>
          <line id="Ligne_216" data-name="Ligne 216" x1="161.355" y1="161.355" transform="translate(96.491 48.246)" fill="none" stroke="#f2f2f2" stroke-miterlimit="10" stroke-width="3"/>
          <line id="Ligne_217" data-name="Ligne 217" x1="161.355" y1="161.355" transform="translate(84.43 60.307)" fill="none" stroke="#f2f2f2" stroke-miterlimit="10" stroke-width="3"/>
          <line id="Ligne_218" data-name="Ligne 218" x1="161.355" y1="161.355" transform="translate(72.369 72.369)" fill="none" stroke="#f2f2f2" stroke-miterlimit="10" stroke-width="3"/>
          <line id="Ligne_219" data-name="Ligne 219" x1="161.355" y1="161.355" transform="translate(60.307 84.43)" fill="none" stroke="#f2f2f2" stroke-miterlimit="10" stroke-width="3"/>
          <line id="Ligne_220" data-name="Ligne 220" x1="161.355" y1="161.355" transform="translate(48.246 96.491)" fill="none" stroke="#f2f2f2" stroke-miterlimit="10" stroke-width="3"/>
          <line id="Ligne_221" data-name="Ligne 221" x1="161.355" y1="161.355" transform="translate(36.184 108.553)" fill="none" stroke="#f2f2f2" stroke-miterlimit="10" stroke-width="3"/>
          <line id="Ligne_222" data-name="Ligne 222" x1="161.355" y1="161.355" transform="translate(24.123 120.614)" fill="none" stroke="#f2f2f2" stroke-miterlimit="10" stroke-width="3"/>
          <line id="Ligne_223" data-name="Ligne 223" x1="161.355" y1="161.355" transform="translate(12.061 132.676)" fill="none" stroke="#f2f2f2" stroke-miterlimit="10" stroke-width="3"/>
          <line id="Ligne_224" data-name="Ligne 224" x1="161.355" y1="161.355" transform="translate(0 144.737)" fill="none" stroke="#f2f2f2" stroke-miterlimit="10" stroke-width="3"/>
        </g>
      </g>
    </g>
    <rect id="Rectangle_127" data-name="Rectangle 127" width="161" height="158" transform="translate(160.999 1279) rotate(180)" fill="#f2f2f2"/>
    <rect id="Rectangle_128" data-name="Rectangle 128" width="161" height="159" transform="translate(479.999 639) rotate(180)" fill="#f2f2f2"/>
    <rect id="Rectangle_129" data-name="Rectangle 129" width="160" height="159" transform="translate(798.999 639) rotate(180)" fill="#d2d4d9"/>
    <rect id="Rectangle_130" data-name="Rectangle 130" width="160" height="161" transform="translate(798.999 480) rotate(180)" fill="#f2f2f2"/>
    <rect id="Rectangle_131" data-name="Rectangle 131" width="158" height="160" transform="translate(1120.999 639)" fill="#656a73"/>
    <rect id="Rectangle_132" data-name="Rectangle 132" width="161" height="161" transform="translate(1278.999 799)" fill="#d2d4d9"/>
    <rect id="Rectangle_133" data-name="Rectangle 133" width="161" height="159" transform="translate(1120.999 639) rotate(180)" fill="#d2d4d9"/>
    <rect id="Rectangle_134" data-name="Rectangle 134" width="158" height="161" transform="translate(1278.999 480) rotate(180)" fill="#949ba6"/>
    <rect id="Rectangle_135" data-name="Rectangle 135" width="159" height="161" transform="translate(1439.999 639) rotate(-90)" fill="#656a73"/>
    <rect id="Rectangle_136" data-name="Rectangle 136" width="161" height="158" transform="translate(1600.999 480) rotate(-90)" fill="#f2f2f2"/>
    <rect id="Rectangle_137" data-name="Rectangle 137" width="158" height="161" transform="translate(1758.999 319) rotate(-90)" fill="#949ba6"/>
    <rect id="Rectangle_138" data-name="Rectangle 138" width="160" height="160" transform="translate(638.999 799) rotate(-90)" fill="#949ba6"/>
    <rect id="Rectangle_139" data-name="Rectangle 139" width="161" height="159" transform="translate(479.999 960) rotate(-90)" fill="#d2d4d9"/>
    <rect id="Rectangle_140" data-name="Rectangle 140" width="161" height="161" transform="translate(318.999 1121) rotate(-90)" fill="#f2f2f2"/>
    <rect id="Rectangle_141" data-name="Rectangle 141" width="158" height="158" transform="translate(160.999 319) rotate(-90)" fill="#949ba6"/>
    <rect id="Rectangle_142" data-name="Rectangle 142" width="158" height="161" transform="translate(798.999 319) rotate(-90)" fill="#d2d4d9"/>
    <rect id="Rectangle_143" data-name="Rectangle 143" width="161" height="161" transform="translate(1439.999 161) rotate(-90)" fill="#d2d4d9"/>
    <rect id="Rectangle_144" data-name="Rectangle 144" width="158" height="161" transform="translate(1278.999 319) rotate(-90)" fill="#d2d4d9"/>
    <rect id="Rectangle_145" data-name="Rectangle 145" width="160" height="161" transform="translate(1439.999 799) rotate(-90)" fill="#949ba6"/>
    <rect id="Rectangle_146" data-name="Rectangle 146" width="161" height="161" transform="translate(959.999 1121) rotate(-90)" fill="#d2d4d9"/>
    <rect id="Rectangle_147" data-name="Rectangle 147" width="158" height="160" transform="translate(638.999 1279) rotate(-90)" fill="#949ba6"/>
    <rect id="Rectangle_148" data-name="Rectangle 148" width="158" height="161" transform="translate(1278.999 1279) rotate(-90)" fill="#949ba6"/>
    <rect id="Rectangle_149" data-name="Rectangle 149" width="161" height="161" transform="translate(318.999 161) rotate(-90)" fill="#d2d4d9"/>
    <rect id="Rectangle_150" data-name="Rectangle 150" width="161" height="161" transform="translate(1439.999 1121) rotate(-90)" fill="#949ba6"/>
    <rect id="Rectangle_151" data-name="Rectangle 151" width="158" height="158" transform="translate(1600.999 1279) rotate(-90)" fill="#d2d4d9"/>
    <rect id="Rectangle_152" data-name="Rectangle 152" width="161" height="160" transform="translate(638.999 161) rotate(-90)" fill="#d2d4d9"/>
    <rect id="Rectangle_153" data-name="Rectangle 153" width="158" height="159" transform="translate(479.999 319) rotate(-90)" fill="#d2d4d9"/>
    <rect id="Rectangle_154" data-name="Rectangle 154" width="161" height="158" transform="translate(1120.999 161) rotate(-90)" fill="#949ba6"/>
    <rect id="Rectangle_155" data-name="Rectangle 155" width="161" height="161" transform="translate(-0.001 319)" fill="#f2f2f2"/>
    <path id="Tracé_197" data-name="Tracé 197" d="M259.992,200V359.992H100Z" transform="translate(59.992 119.984)" fill="#949ba6"/>
    <path id="Tracé_198" data-name="Tracé 198" d="M959.992,459.992V300H800V619.984Z" transform="translate(479.937 179.976)" fill="#f2f2f2"/>
    <path id="Tracé_199" data-name="Tracé 199" d="M600,400H759.992V559.992Z" transform="translate(359.953 239.968)" fill="#d2d4d9"/>
    <path id="Tracé_200" data-name="Tracé 200" d="M500,700H659.992V859.992Z" transform="translate(299.961 419.945)" fill="#949ba6"/>
    <path id="Tracé_201" data-name="Tracé 201" d="M100,0H259.993V159.992Z" transform="translate(59.993 0)" fill="#656a73"/>
    <path id="Tracé_202" data-name="Tracé 202" d="M1259.992,659.992h0V500L1100,659.992h0V819.984h159.992Z" transform="translate(659.914 299.961)" fill="#949ba6"/>
    <path id="Tracé_203" data-name="Tracé 203" d="M500,159.992V0H659.993Z" transform="translate(299.962 0)" fill="#656a73"/>
    <rect id="Rectangle_156" data-name="Rectangle 156" width="161" height="161" transform="translate(-0.001 799)" fill="#656a73"/>
    <path id="Tracé_204" data-name="Tracé 204" d="M200,559.992H359.991A159.991,159.991,0,0,0,519.983,400H359.991A159.993,159.993,0,0,0,200,559.992Z" transform="translate(119.984 239.968)" fill="#d2d4d9"/>
    <path id="Tracé_205" data-name="Tracé 205" d="M419.983,500A159.992,159.992,0,0,1,100,500Z" transform="translate(59.992 299.961)" fill="#f2f2f2"/>
    <path id="Tracé_206" data-name="Tracé 206" d="M1319.983,0a159.992,159.992,0,0,1-159.992,159.992A159.993,159.993,0,0,1,1000,0Z" transform="translate(599.921 0)" fill="#949ba6"/>
    <path id="Tracé_207" data-name="Tracé 207" d="M1219.984,500A159.992,159.992,0,1,1,900,500Z" transform="translate(539.93 299.961)" fill="#656a73"/>
    <path id="Tracé_208" data-name="Tracé 208" d="M759.992,319.984A159.992,159.992,0,0,1,759.992,0Z" transform="translate(359.953 0)" fill="#d2d4d9"/>
    <path id="Tracé_209" data-name="Tracé 209" d="M700,600a159.992,159.992,0,0,1,0,319.984Z" transform="translate(419.946 359.953)" fill="#949ba6"/>
    <path id="Tracé_210" data-name="Tracé 210" d="M0,759.992a159.992,159.992,0,0,1,319.984,0Z" transform="translate(0 359.953)" fill="#d2d4d9"/>
    <path id="Tracé_211" data-name="Tracé 211" d="M919.983,500A159.992,159.992,0,0,1,600,500Z" transform="translate(359.953 299.961)" fill="#d2d4d9"/>
    <path id="Tracé_212" data-name="Tracé 212" d="M659.992,819.984a159.992,159.992,0,0,1,0-319.984Z" transform="translate(299.961 299.961)" fill="#949ba6"/>
    <path id="Tracé_213" data-name="Tracé 213" d="M159.992,319.984A159.992,159.992,0,0,1,159.992,0Z" transform="translate(0.001 0)" fill="#949ba6"/>
    <path id="Tracé_214" data-name="Tracé 214" d="M259.992,700V859.992H100Z" transform="translate(59.993 419.945)" fill="#656a73"/>
    <path id="Tracé_215" data-name="Tracé 215" d="M159.992,300H0V459.992H159.992L319.984,300Z" transform="translate(0 179.976)" fill="#d2d4d9"/>
    <rect id="Rectangle_157" data-name="Rectangle 157" width="158" height="159" transform="translate(479.999 1279) rotate(-90)" fill="#f2f2f2"/>
    <path id="Tracé_216" data-name="Tracé 216" d="M459.992,759.992H300V600Z" transform="translate(179.977 359.953)" fill="#d2d4d9"/>
    <path id="Tracé_217" data-name="Tracé 217" d="M700,459.992V300H859.992Z" transform="translate(419.945 179.976)" fill="#949ba6"/>
    <path id="Tracé_218" data-name="Tracé 218" d="M1159.991,459.991H1000V300Z" transform="translate(599.922 179.976)" fill="#d2d4d9"/>
    <path id="Tracé_219" data-name="Tracé 219" d="M1059.992,259.992H900V100Z" transform="translate(539.93 59.992)" fill="#949ba6"/>
    <path id="Tracé_220" data-name="Tracé 220" d="M359.992,200A159.991,159.991,0,0,0,200,359.992H359.992Z" transform="translate(119.985 119.984)" fill="#d2d4d9"/>
    <path id="Tracé_221" data-name="Tracé 221" d="M500,359.992A159.993,159.993,0,0,0,659.991,519.984V359.992A159.992,159.992,0,0,0,819.983,200H659.991A159.992,159.992,0,0,0,500,359.992Z" transform="translate(299.961 119.984)" fill="#f2f2f2"/>
    <path id="Tracé_222" data-name="Tracé 222" d="M500,400A159.993,159.993,0,0,0,659.991,559.992V400Z" transform="translate(299.961 239.968)" fill="#949ba6"/>
    <path id="Tracé_223" data-name="Tracé 223" d="M400,659.992A159.993,159.993,0,0,0,559.992,500H400Z" transform="translate(239.969 299.961)" fill="#949ba6"/>
    <path id="Tracé_224" data-name="Tracé 224" d="M800,159.992A159.992,159.992,0,0,0,959.992,0H800Z" transform="translate(479.938 0)" fill="#d2d4d9"/>
    <path id="Tracé_225" data-name="Tracé 225" d="M900,200a159.992,159.992,0,0,0,159.992,159.992V200Z" transform="translate(539.93 119.984)" fill="#f2f2f2"/>
    <path id="Tracé_226" data-name="Tracé 226" d="M459.991,459.992A159.991,159.991,0,0,0,300,300V459.992Z" transform="translate(179.976 179.976)" fill="#949ba6"/>
    <path id="Tracé_227" data-name="Tracé 227" d="M800,600A159.992,159.992,0,0,0,959.992,759.992V600Z" transform="translate(479.938 359.953)" fill="#f2f2f2"/>
    <path id="Tracé_228" data-name="Tracé 228" d="M900,859.992A159.993,159.993,0,0,0,1059.992,700H900Z" transform="translate(539.93 419.945)" fill="#949ba6"/>
    <path id="Tracé_229" data-name="Tracé 229" d="M1159.992,759.992A159.992,159.992,0,0,0,1000,600V759.992Z" transform="translate(599.922 359.953)" fill="#949ba6"/>
    <path id="Tracé_230" data-name="Tracé 230" d="M1100,700a159.992,159.992,0,0,0,159.992,159.992V700Z" transform="translate(659.914 419.945)" fill="#d2d4d9"/>
    <path id="Tracé_231" data-name="Tracé 231" d="M459.992,0A159.993,159.993,0,0,0,300,159.992H459.992Z" transform="translate(179.977 0)" fill="#d2d4d9"/>
    <path id="Tracé_232" data-name="Tracé 232" d="M200,100A159.992,159.992,0,0,0,359.992,259.992V100Z" transform="translate(119.985 59.992)" fill="#949ba6"/>
    <path id="Tracé_233" data-name="Tracé 233" d="M1259.992,459.992V300H1100V459.992a159.992,159.992,0,0,0,159.992,159.992Z" transform="translate(659.914 179.976)" fill="#656a73"/>
  </g>
</svg>
