<svg xmlns="http://www.w3.org/2000/svg" xmlns:xlink="http://www.w3.org/1999/xlink" width="32" height="32" viewBox="0 0 32 32"><defs><clipPath id="a"><rect width="32" height="32" transform="translate(0.161 0.161)" fill="none"/></clipPath></defs><g transform="translate(0.179 0.177)"><g transform="translate(-0.34 -0.339)" clip-path="url(#a)"><path d="M31.3,19.731A15.882,15.882,0,1,1,19.728.475,15.885,15.885,0,0,1,31.3,19.731" transform="translate(0.275 0.274)" fill="#fff"/><path d="M30.731,19.239c.316-2.114-1.293-3.251-3.495-4.009l.714-2.864-1.743-.434-.7,2.788c-.458-.114-.929-.222-1.4-.329l.7-2.807-1.742-.434-.714,2.863c-.379-.086-.752-.172-1.113-.262l0-.009-2.4-.6L18.381,15s1.293.3,1.266.315a.928.928,0,0,1,.813,1.014L19.645,19.6a1.507,1.507,0,0,1,.182.058l-.184-.046-1.14,4.57a.635.635,0,0,1-.8.414c.017.025-1.267-.316-1.267-.316l-.866,2,2.269.566c.422.106.835.216,1.243.32l-.722,2.9,1.741.434.714-2.866c.476.13.937.248,1.389.361l-.712,2.852,1.743.434.721-2.891c2.972.563,5.208.336,6.149-2.352.758-2.164-.038-3.413-1.6-4.228a2.781,2.781,0,0,0,2.226-2.56m-3.983,5.585c-.539,2.164-4.184.995-5.366.7l.958-3.837c1.182.295,4.971.879,4.408,3.136m.539-5.616c-.492,1.969-3.526.969-4.509.723l.868-3.48c.984.245,4.153.7,3.641,2.757" transform="translate(-7.565 -5.341)" fill="#f7931a"/></g></g></svg>