<svg xmlns="http://www.w3.org/2000/svg" xmlns:xlink="http://www.w3.org/1999/xlink" width="55.764" height="26.325" viewBox="0 0 55.764 26.325"><defs><clipPath id="a"><rect width="55.764" height="26.325" fill="none"/></clipPath></defs><g clip-path="url(#a)"><path d="M16.67,54.726c-.212.2-.427.388-.637.586a4.7,4.7,0,0,0-.625,6.407,3.806,3.806,0,0,0,1.618,1.34c.079.032.16.061.258.1-.089.241-.167.478-.262.708a12.329,12.329,0,0,1-2.256,3.659,5.438,5.438,0,0,1-.6.553,2.545,2.545,0,0,1-2.428.54c-.452-.132-.9-.28-1.35-.419a5.231,5.231,0,0,0-1.422-.27,4.65,4.65,0,0,0-1.725.373,11.38,11.38,0,0,1-1.291.423,2.327,2.327,0,0,1-1.89-.437,5.616,5.616,0,0,1-1.432-1.471A15.029,15.029,0,0,1,.414,62.193a10.732,10.732,0,0,1-.3-4.524A6.45,6.45,0,0,1,1.774,54.1a4.154,4.154,0,0,1,3.611-1.328,11.431,11.431,0,0,1,2.058.472c.282.082.57.144.855.216A2.25,2.25,0,0,0,9.5,53.4c.556-.163,1.105-.348,1.66-.513a5.224,5.224,0,0,1,2.514-.15,4.758,4.758,0,0,1,2.7,1.635c.091.1.181.209.271.315a.22.22,0,0,1,.021.04" transform="translate(0 -47.94)" fill="#fff"/><path d="M98.171,0a6.068,6.068,0,0,1,.03.695,4.973,4.973,0,0,1-1.413,3.168,3.766,3.766,0,0,1-1.325.959,4.637,4.637,0,0,1-1.386.248c-.007,0-.015-.008-.023-.012A4.806,4.806,0,0,1,98.171,0" transform="translate(-85.644)" fill="#fff"/><path d="M252.216,32.944a26.229,26.229,0,0,1,4.344-.338,7.2,7.2,0,0,1,4.916,1.457,4.713,4.713,0,0,1,1.535,3.668,5.16,5.16,0,0,1-1.353,3.746A7.264,7.264,0,0,1,256.3,43.4a7.787,7.787,0,0,1-1.821-.156v7.023h-2.263Zm2.263,8.453a7.587,7.587,0,0,0,1.873.182c2.731,0,4.4-1.326,4.4-3.745,0-2.315-1.639-3.433-4.136-3.433a9.5,9.5,0,0,0-2.133.182Z" transform="translate(-229.663 -29.69)" fill="#fff"/><path d="M383.2,99l-.182-1.587h-.078a4.689,4.689,0,0,1-3.85,1.873,3.587,3.587,0,0,1-3.85-3.615c0-3.043,2.705-4.708,7.569-4.682v-.26a2.6,2.6,0,0,0-2.861-2.913,6.272,6.272,0,0,0-3.277.936l-.52-1.509a7.813,7.813,0,0,1,4.136-1.118c3.85,0,4.786,2.627,4.786,5.15v4.708A17.729,17.729,0,0,0,385.277,99Zm-.338-6.425c-2.5-.052-5.332.39-5.332,2.835a2.026,2.026,0,0,0,2.159,2.185,3.132,3.132,0,0,0,3.043-2.107,2.387,2.387,0,0,0,.13-.728Z" transform="translate(-341.684 -78.427)" fill="#fff"/><path d="M493.766,89.328l2.757,7.439c.286.832.6,1.821.806,2.575h.052c.234-.754.494-1.717.806-2.627l2.5-7.387H503.1L499.67,98.3c-1.639,4.318-2.757,6.529-4.318,7.881a6.2,6.2,0,0,1-2.809,1.483l-.572-1.925a6.052,6.052,0,0,0,2-1.118,6.939,6.939,0,0,0,1.925-2.549,1.642,1.642,0,0,0,.182-.546,2,2,0,0,0-.156-.6l-4.656-11.6Z" transform="translate(-447.34 -81.34)" fill="#fff"/></g></svg>