<svg xmlns="http://www.w3.org/2000/svg" xmlns:xlink="http://www.w3.org/1999/xlink" width="23.871" height="28.325" viewBox="0 0 23.871 28.325"><defs><clipPath id="a"><rect width="23.871" height="28.325" fill="none"/></clipPath></defs><g clip-path="url(#a)"><path d="M32.185,32.326h7.99c4.289,0,5.9,2.171,5.655,5.367-.411,5.267-3.6,8.18-7.82,8.18H35.877c-.579,0-.969.383-1.126,1.423l-.915,6.039c-.059.392-.266.623-.576.651H28.25c-.471,0-.639-.361-.516-1.142l3.059-19.371a1.221,1.221,0,0,1,1.391-1.146" transform="translate(-21.984 -25.66)" fill="#0094cb" fill-rule="evenodd"/><path d="M5.205,0h8c2.253,0,4.924.073,6.711,1.649A5.414,5.414,0,0,1,21.59,6.181c-.49,6.107-4.143,9.528-9.042,9.528H8.6c-.671,0-1.116.445-1.306,1.65l-1.1,7c-.071.454-.268.722-.628.754H.643c-.547,0-.741-.418-.6-1.324L3.592,1.329A1.416,1.416,0,0,1,5.205,0" transform="translate(0)" fill="#003082" fill-rule="evenodd"/><path d="M35.948,42.313l1.4-8.84a1.221,1.221,0,0,1,1.391-1.146h7.99a7.8,7.8,0,0,1,3.229.587c-.8,5.435-4.318,8.455-8.921,8.455H37.088c-.519,0-.907.265-1.14.944" transform="translate(-28.535 -25.661)" fill="#00236d" fill-rule="evenodd"/></g></svg>