<svg xmlns="http://www.w3.org/2000/svg" width="58.959" height="58.959" viewBox="0 0 58.959 58.959"><g transform="translate(15.733) rotate(20)" opacity="0.997"><rect width="46" height="46" fill="rgba(255,255,255,0)"/><path d="M336.705,2644.981l-5.947,5.714,1.4,8.061a3.48,3.48,0,0,1-1.387,3.422,3.574,3.574,0,0,1-3.768.291l-7.364-3.814-7.364,3.814a3.571,3.571,0,0,1-3.768-.29,3.485,3.485,0,0,1-1.387-3.422l1.4-8.061-5.947-5.714a3.473,3.473,0,0,1-.911-3.593,3.519,3.519,0,0,1,2.88-2.412l8.229-1.178,3.678-7.344a3.573,3.573,0,0,1,6.371,0l3.678,7.344,8.229,1.178a3.519,3.519,0,0,1,2.878,2.412A3.47,3.47,0,0,1,336.705,2644.981Z" transform="translate(-299.51 -2617.255)" fill="#fb5c2d"/></g></svg>